<mxfile host="app.diagrams.net" modified="2024-02-06T18:34:43.625Z" agent="Mozilla/5.0 (Macintosh; Intel Mac OS X 10_15_7) AppleWebKit/605.1.15 (KHTML, like Gecko) Version/17.2.1 Safari/605.1.15" etag="tmdoASepd6JTFSlhFb9_" version="23.1.1" type="github">
  <diagram id="BF7IHCFBIq01qHaQ66Sd" name="Page-1">
    <mxGraphModel dx="954" dy="1577" grid="1" gridSize="10" guides="1" tooltips="1" connect="1" arrows="1" fold="1" page="1" pageScale="1" pageWidth="1100" pageHeight="850" math="0" shadow="0">
      <root>
        <mxCell id="0" />
        <mxCell id="1" parent="0" />
        <mxCell id="3evqyWaGTYKsGk6whSGy-1" value="" style="rounded=0;whiteSpace=wrap;html=1;fontSize=14;fontColor=#FFFFFF;fillColor=none;dashed=1;dashPattern=1 1;strokeColor=#0078D7;" parent="1" vertex="1">
          <mxGeometry x="60" y="176.5" width="647.03" height="273.5" as="geometry" />
        </mxCell>
        <mxCell id="AKMWu6zeBszVm3hPUmEi-63" value="" style="rounded=0;whiteSpace=wrap;html=1;fillColor=#E6E6E6;" parent="1" vertex="1">
          <mxGeometry x="40" y="120" width="729.05" height="350" as="geometry" />
        </mxCell>
        <mxCell id="AKMWu6zeBszVm3hPUmEi-13" value="&lt;font style=&quot;font-size: 14px;&quot; color=&quot;#0078d7&quot;&gt;10.0.0.0/16&lt;/font&gt;" style="text;html=1;align=center;verticalAlign=middle;resizable=0;points=[];autosize=1;fontSize=14;" parent="1" vertex="1">
          <mxGeometry x="107.20361247962397" y="156.49887091584554" width="90" height="20" as="geometry" />
        </mxCell>
        <mxCell id="AKMWu6zeBszVm3hPUmEi-16" value="&lt;font style=&quot;font-size: 10px&quot;&gt;Gateway&lt;/font&gt;" style="text;html=1;align=center;verticalAlign=middle;resizable=0;points=[];autosize=1;" parent="1" vertex="1">
          <mxGeometry x="717.843612479624" y="176.49887091584554" width="50" height="20" as="geometry" />
        </mxCell>
        <mxCell id="AKMWu6zeBszVm3hPUmEi-49" value="&lt;font style=&quot;font-size: 10px&quot;&gt;&lt;b&gt;Untrusted Public IP &amp;nbsp;&lt;/b&gt;natted by Azure&lt;br&gt;&lt;font style=&quot;border-color: var(--border-color); text-align: left;&quot;&gt;&lt;b style=&quot;border-color: var(--border-color);&quot;&gt;&lt;div style=&quot;border-color: var(--border-color);&quot;&gt;rds-app0.region.cloudapp.azure.com&lt;/div&gt;&lt;/b&gt;&lt;/font&gt;&lt;/font&gt;" style="text;html=1;align=center;verticalAlign=middle;resizable=0;points=[];autosize=1;" parent="1" vertex="1">
          <mxGeometry x="269.40361247962403" y="30" width="200" height="40" as="geometry" />
        </mxCell>
        <mxCell id="AKMWu6zeBszVm3hPUmEi-66" value="" style="aspect=fixed;pointerEvents=1;shadow=0;dashed=0;html=1;strokeColor=none;labelPosition=center;verticalLabelPosition=bottom;verticalAlign=top;align=center;fillColor=#00188D;shape=mxgraph.mscae.enterprise.gateway" parent="1" vertex="1">
          <mxGeometry x="717.84" y="126.5" width="50" height="50" as="geometry" />
        </mxCell>
        <mxCell id="_UIXl4ieY7dxne0N4wTR-3" value="" style="shape=image;verticalLabelPosition=bottom;verticalAlign=top;imageAspect=0;aspect=fixed;image=data:image/svg+xml,PHN2ZyB4bWxucz0iaHR0cDovL3d3dy53My5vcmcvMjAwMC9zdmciIHhtbG5zOnhsaW5rPSJodHRwOi8vd3d3LnczLm9yZy8xOTk5L3hsaW5rIiB2ZXJzaW9uPSIxLjEiIGlkPSJMYXllcl8xIiB4PSIwcHgiIHk9IjBweCIgaGVpZ2h0PSI1MHB4IiB3aWR0aD0iNTBweCIgdmlld0JveD0iMCAwIDUwIDUwIiBlbmFibGUtYmFja2dyb3VuZD0ibmV3IDAgMCA1MCA1MCIgeG1sOnNwYWNlPSJwcmVzZXJ2ZSI+JiN4YTs8cGF0aCBmaWxsPSIjMzk5OUM2IiBkPSJNNDkuNywyNS43YzAuNS0wLjUsMC40LTEuMywwLTEuOGwtMi40LTIuNEwzNi41LDExYy0wLjUtMC41LTEuMi0wLjUtMS43LDBsMCwwYy0wLjUsMC41LTAuNiwxLjMsMCwxLjggIGwxMS4zLDExLjFjMC41LDAuNSwwLjUsMS4zLDAsMS44TDM0LjYsMzcuMmMtMC41LDAuNS0wLjUsMS4zLDAsMS44bDAsMGMwLjUsMC41LDEuMywwLjQsMS43LDBsMTAuNy0xMC42YzAsMCwwLDAsMC4xLTAuMUw0OS43LDI1LjcgIHoiLz4mI3hhOzxwYXRoIGZpbGw9IiMzOTk5QzYiIGQ9Ik0wLjMsMjUuN2MtMC41LTAuNS0wLjQtMS4zLDAtMS44bDIuNC0yLjRMMTMuNSwxMWMwLjUtMC41LDEuMi0wLjUsMS43LDBsMCwwYzAuNSwwLjUsMC42LDEuMywwLDEuOCAgTDQuMSwyMy45Yy0wLjUsMC41LTAuNSwxLjMsMCwxLjhsMTEuMywxMS41YzAuNSwwLjUsMC41LDEuMywwLDEuOGwwLDBjLTAuNSwwLjUtMS4zLDAuNC0xLjcsMEwyLjgsMjguNWMwLDAsMCwwLTAuMS0wLjFMMC4zLDI1Ljd6Ii8+JiN4YTs8cGF0aCBmaWxsPSIjN0ZCQTAwIiBkPSJNMTguMiwyNC44YzAsMS45LTEuNiwzLjMtMy4zLDMuM3MtMy41LTEuNi0zLjUtMy4zczEuNC0zLjMsMy41LTMuM0MxNi45LDIxLjUsMTguMiwyMy4xLDE4LjIsMjQuOHoiLz4mI3hhOzxwYXRoIGZpbGw9IiM3RkJBMDAiIGQ9Ik0yOC4zLDI0LjhjMCwxLjktMS42LDMuMy0zLjMsMy4zcy0zLjUtMS42LTMuNS0zLjNzMS42LTMuMywzLjUtMy4zUzI4LjMsMjMuMSwyOC4zLDI0Ljh6Ii8+JiN4YTs8Y2lyY2xlIGZpbGw9IiM3RkJBMDAiIGN4PSIzNS4yIiBjeT0iMjQuOCIgcj0iMy4zIi8+JiN4YTs8L3N2Zz4=" parent="1" vertex="1">
          <mxGeometry x="61.650000000000006" y="134" width="50" height="50" as="geometry" />
        </mxCell>
        <mxCell id="_UIXl4ieY7dxne0N4wTR-4" value="&lt;font style=&quot;font-size: 14px;&quot; color=&quot;#0078d7&quot;&gt;Azure Vnet&lt;/font&gt;" style="text;html=1;align=center;verticalAlign=middle;resizable=0;points=[];autosize=1;fontSize=14;" parent="1" vertex="1">
          <mxGeometry x="112.20361247962394" y="141.49887091584554" width="80" height="20" as="geometry" />
        </mxCell>
        <mxCell id="AKMWu6zeBszVm3hPUmEi-71" value="" style="rounded=0;whiteSpace=wrap;html=1;fillColor=#F5F5F5;dashed=1;" parent="1" vertex="1">
          <mxGeometry x="74.5" y="320" width="613" height="120" as="geometry" />
        </mxCell>
        <mxCell id="AKMWu6zeBszVm3hPUmEi-70" value="" style="rounded=0;whiteSpace=wrap;html=1;fillColor=#F5F5F5;dashed=1;" parent="1" vertex="1">
          <mxGeometry x="74.5" y="190" width="612.22" height="70" as="geometry" />
        </mxCell>
        <mxCell id="AKMWu6zeBszVm3hPUmEi-7" value="&lt;font style=&quot;font-size: 10px&quot;&gt;External Subnet&lt;/font&gt;" style="text;html=1;align=left;verticalAlign=middle;resizable=0;points=[];autosize=1;" parent="1" vertex="1">
          <mxGeometry x="78" y="188.99887091584554" width="90" height="20" as="geometry" />
        </mxCell>
        <mxCell id="AKMWu6zeBszVm3hPUmEi-8" value="&lt;font style=&quot;font-size: 10px&quot;&gt;10.0.1.0/24&lt;/font&gt;" style="text;html=1;align=left;verticalAlign=middle;resizable=0;points=[];autosize=1;" parent="1" vertex="1">
          <mxGeometry x="78" y="196.99887091584554" width="70" height="30" as="geometry" />
        </mxCell>
        <mxCell id="AKMWu6zeBszVm3hPUmEi-9" value="&lt;font style=&quot;font-size: 10px&quot;&gt;Internal Subnet&lt;/font&gt;" style="text;html=1;align=left;verticalAlign=middle;resizable=0;points=[];autosize=1;" parent="1" vertex="1">
          <mxGeometry x="78" y="322.49887091584554" width="80" height="20" as="geometry" />
        </mxCell>
        <mxCell id="AKMWu6zeBszVm3hPUmEi-10" value="&lt;font style=&quot;font-size: 10px&quot;&gt;10.0.3.0/24&lt;/font&gt;" style="text;html=1;align=left;verticalAlign=middle;resizable=0;points=[];autosize=1;" parent="1" vertex="1">
          <mxGeometry x="78" y="330.49887091584554" width="70" height="30" as="geometry" />
        </mxCell>
        <mxCell id="AKMWu6zeBszVm3hPUmEi-25" value="&lt;font style=&quot;font-size: 10px&quot;&gt;Application instance&lt;/font&gt;" style="text;html=1;align=center;verticalAlign=middle;resizable=0;points=[];autosize=1;" parent="1" vertex="1">
          <mxGeometry x="330.6136124796239" y="408.99887091584554" width="100" height="20" as="geometry" />
        </mxCell>
        <mxCell id="_UIXl4ieY7dxne0N4wTR-7" value="" style="verticalLabelPosition=bottom;html=1;verticalAlign=top;align=center;strokeColor=none;shape=mxgraph.azure.virtual_machine;fillColor=#0078D7;" parent="1" vertex="1">
          <mxGeometry x="358.84" y="358" width="50" height="40" as="geometry" />
        </mxCell>
        <mxCell id="_UIXl4ieY7dxne0N4wTR-22" value="&lt;font style=&quot;font-size: 10px&quot;&gt;&lt;span&gt;BIG-IP 2 (Standby)&lt;/span&gt;&lt;/font&gt;" style="text;html=1;align=left;verticalAlign=middle;resizable=0;points=[];autosize=1;fontColor=#FFFFFF;fontStyle=0" parent="1" vertex="1">
          <mxGeometry x="461.6036124796241" y="271.49887091584554" width="100" height="20" as="geometry" />
        </mxCell>
        <mxCell id="AKMWu6zeBszVm3hPUmEi-50" value="" style="endArrow=classic;html=1;exitX=0.484;exitY=1.13;exitDx=0;exitDy=0;exitPerimeter=0;strokeColor=#00CC00;strokeWidth=5;gradientColor=none;entryX=0.51;entryY=0.033;entryDx=0;entryDy=0;entryPerimeter=0;" parent="1" source="AKMWu6zeBszVm3hPUmEi-49" edge="1" target="l_mYRzrYeqDjEib-8nwH-14">
          <mxGeometry width="50" height="50" relative="1" as="geometry">
            <mxPoint x="430" y="50" as="sourcePoint" />
            <mxPoint x="372" y="220" as="targetPoint" />
          </mxGeometry>
        </mxCell>
        <mxCell id="zvadLbQBqD83SoQreQHl-4" value="" style="rounded=0;whiteSpace=wrap;html=1;fillColor=#F5F5F5;dashed=1;" parent="1" vertex="1">
          <mxGeometry x="75" y="268" width="612" height="45" as="geometry" />
        </mxCell>
        <mxCell id="zvadLbQBqD83SoQreQHl-5" value="&lt;font style=&quot;font-size: 10px&quot;&gt;Management Subnet&lt;/font&gt;" style="text;html=1;align=left;verticalAlign=middle;resizable=0;points=[];autosize=1;" parent="1" vertex="1">
          <mxGeometry x="78" y="268.49887091584554" width="110" height="20" as="geometry" />
        </mxCell>
        <mxCell id="zvadLbQBqD83SoQreQHl-6" value="&lt;font style=&quot;font-size: 10px&quot;&gt;10.0.0.0/24&lt;/font&gt;" style="text;html=1;align=left;verticalAlign=middle;resizable=0;points=[];autosize=1;" parent="1" vertex="1">
          <mxGeometry x="78" y="276.49887091584554" width="70" height="30" as="geometry" />
        </mxCell>
        <mxCell id="_UIXl4ieY7dxne0N4wTR-12" value="" style="rounded=0;whiteSpace=wrap;html=1;fillColor=#0078D7;" parent="1" vertex="1">
          <mxGeometry x="305.95" y="256" width="144.4" height="71" as="geometry" />
        </mxCell>
        <mxCell id="AKMWu6zeBszVm3hPUmEi-23" value="&lt;font style=&quot;font-size: 10px&quot;&gt;&lt;b&gt;Palo Alto&lt;/b&gt;&lt;/font&gt;" style="text;html=1;align=left;verticalAlign=middle;resizable=0;points=[];autosize=1;fontColor=#FFFFFF;" parent="1" vertex="1">
          <mxGeometry x="334.40361247962403" y="271.74887091584554" width="70" height="30" as="geometry" />
        </mxCell>
        <mxCell id="zvadLbQBqD83SoQreQHl-13" value="&lt;span style=&quot;font-size: 10px ; font-weight: normal&quot;&gt;10.0.3.10/24&lt;/span&gt;" style="text;html=1;align=left;verticalAlign=middle;resizable=0;points=[];autosize=1;fontStyle=1" parent="1" vertex="1">
          <mxGeometry x="354.88361247962393" y="392.99887091584554" width="80" height="30" as="geometry" />
        </mxCell>
        <mxCell id="l_mYRzrYeqDjEib-8nwH-6" value="" style="endArrow=classic;html=1;entryX=0.775;entryY=1.068;entryDx=0;entryDy=0;entryPerimeter=0;strokeWidth=5;strokeColor=#7ACCCC;" parent="1" edge="1">
          <mxGeometry width="50" height="50" relative="1" as="geometry">
            <mxPoint x="193" y="296.75" as="sourcePoint" />
            <mxPoint x="235.6300000000001" y="296.7439999999999" as="targetPoint" />
            <Array as="points">
              <mxPoint x="225" y="297" />
            </Array>
          </mxGeometry>
        </mxCell>
        <mxCell id="l_mYRzrYeqDjEib-8nwH-8" value="&lt;font style=&quot;font-size: 10px&quot;&gt;&lt;b&gt;Mgmt PUBLIC IP:&lt;br&gt;&lt;div&gt;rds-mgmt0.region.cloudapp.azure.com&lt;/div&gt;&lt;/b&gt;&lt;/font&gt;&lt;span style=&quot;font-family: -webkit-standard; font-size: medium;&quot;&gt;&lt;/span&gt;" style="text;html=1;align=left;verticalAlign=middle;resizable=0;points=[];autosize=1;" parent="1" vertex="1">
          <mxGeometry x="100.00361247962411" y="-4" width="210" height="40" as="geometry" />
        </mxCell>
        <mxCell id="l_mYRzrYeqDjEib-8nwH-7" value="" style="endArrow=none;html=1;strokeWidth=6;strokeColor=#7ACCCC;" parent="1" edge="1">
          <mxGeometry width="50" height="50" relative="1" as="geometry">
            <mxPoint x="195" y="298.75" as="sourcePoint" />
            <mxPoint x="195" y="35" as="targetPoint" />
          </mxGeometry>
        </mxCell>
        <mxCell id="l_mYRzrYeqDjEib-8nwH-11" value="&lt;font style=&quot;font-size: 10px&quot;&gt;10.0.3.4/24&lt;/font&gt;" style="text;html=1;align=left;verticalAlign=middle;resizable=0;points=[];autosize=1;" parent="1" vertex="1">
          <mxGeometry x="320" y="322" width="70" height="30" as="geometry" />
        </mxCell>
        <mxCell id="l_mYRzrYeqDjEib-8nwH-12" value="Eth1/2 &amp;nbsp; &amp;nbsp;Trust" style="text;html=1;align=left;verticalAlign=middle;resizable=0;points=[];autosize=1;" parent="1" vertex="1">
          <mxGeometry x="310" y="335.5" width="100" height="30" as="geometry" />
        </mxCell>
        <mxCell id="l_mYRzrYeqDjEib-8nwH-13" value="&lt;font style=&quot;font-size: 10px&quot;&gt;10.0.1.4/24&lt;/font&gt;" style="text;html=1;align=left;verticalAlign=middle;resizable=0;points=[];autosize=1;" parent="1" vertex="1">
          <mxGeometry x="320" y="230.99887091584554" width="70" height="30" as="geometry" />
        </mxCell>
        <mxCell id="l_mYRzrYeqDjEib-8nwH-14" value="&lt;font style=&quot;font-size: 10px&quot;&gt;Eth1/1 &amp;nbsp; &amp;nbsp;Untrust&lt;/font&gt;" style="text;html=1;align=left;verticalAlign=middle;resizable=0;points=[];autosize=1;" parent="1" vertex="1">
          <mxGeometry x="314" y="217" width="100" height="30" as="geometry" />
        </mxCell>
        <mxCell id="l_mYRzrYeqDjEib-8nwH-21" value="&lt;font style=&quot;font-size: 10px&quot;&gt;10.0.0.4/24&lt;/font&gt;" style="text;html=1;align=left;verticalAlign=middle;resizable=0;points=[];autosize=1;" parent="1" vertex="1">
          <mxGeometry x="244.00361247962394" y="280.49887091584554" width="70" height="30" as="geometry" />
        </mxCell>
        <mxCell id="l_mYRzrYeqDjEib-8nwH-22" value="&lt;span style=&quot;font-size: 10px&quot;&gt;Management IP&lt;/span&gt;" style="text;html=1;align=left;verticalAlign=middle;resizable=0;points=[];autosize=1;" parent="1" vertex="1">
          <mxGeometry x="230.00361247962397" y="271.49887091584554" width="90" height="20" as="geometry" />
        </mxCell>
        <mxCell id="l_mYRzrYeqDjEib-8nwH-24" value="" style="shape=image;verticalLabelPosition=bottom;verticalAlign=top;imageAspect=0;aspect=fixed;image=data:image/svg+xml,PHN2ZyB4bWxucz0iaHR0cDovL3d3dy53My5vcmcvMjAwMC9zdmciIHhtbG5zOnhsaW5rPSJodHRwOi8vd3d3LnczLm9yZy8xOTk5L3hsaW5rIiB2ZXJzaW9uPSIxLjEiIGlkPSJMYXllcl8xIiB4PSIwcHgiIHk9IjBweCIgd2lkdGg9IjUwcHgiIGhlaWdodD0iNTBweCIgdmlld0JveD0iMCAwIDUwIDUwIiBlbmFibGUtYmFja2dyb3VuZD0ibmV3IDAgMCA1MCA1MCIgeG1sOnNwYWNlPSJwcmVzZXJ2ZSI+JiN4YTs8cGF0aCBmaWxsPSIjN0ZCQTAwIiBkPSJNMjUsNTBjLTEuMiwwLTIuNC0wLjUtMy4zLTEuNEwxLjQsMjguM0MwLjUsMjcuNCwwLDI2LjIsMCwyNXMwLjUtMi40LDEuNC0zLjNMMjEuNywxLjQgIEMyMi42LDAuNSwyMy44LDAsMjUsMHMyLjQsMC41LDMuMywxLjRsMjAuNCwyMC40YzAuOSwwLjksMS40LDIsMS40LDMuM2MwLDEuMi0wLjUsMi40LTEuNCwzLjNMMjguMyw0OC42QzI3LjQsNDkuNSwyNi4yLDUwLDI1LDUwIi8+JiN4YTs8cGF0aCBvcGFjaXR5PSIwLjE1IiBmaWxsPSIjRkZGRkZGIiBlbmFibGUtYmFja2dyb3VuZD0ibmV3ICAgICIgZD0iTTI4LjMsMS40QzI3LjQsMC41LDI2LjIsMCwyNSwwcy0yLjQsMC41LTMuMywxLjRMMS40LDIxLjcgIEMwLjUsMjIuNiwwLDIzLjgsMCwyNXMwLjUsMi40LDEuNCwzLjNsMTEuNSwxMS41TDM0LjYsNy43TDI4LjMsMS40eiIvPiYjeGE7PHBvbHlnb24gZmlsbD0iI0ZGRkZGRiIgcG9pbnRzPSIyNSw0LjQgMTguNCwxMSAyMy4xLDExIDIzLjEsMjAuNiAyNywyMC42IDI3LDExIDMxLjYsMTEgIi8+JiN4YTs8cG9seWdvbiBmaWxsPSIjRkZGRkZGIiBwb2ludHM9IjI1LDQ1LjYgMzEuNiwzOSAyNi45LDM5IDI2LjksMjkuNiAyMywyOS42IDIzLDM5IDE4LjQsMzkgIi8+JiN4YTs8cG9seWdvbiBmaWxsPSIjRkZGRkZGIiBwb2ludHM9IjI4LjEsMjUgMzQuNywzMS42IDM0LjcsMjcgNDMuNiwyNyA0My42LDIzIDM0LjcsMjMgMzQuNywxOC40ICIvPiYjeGE7PHBvbHlnb24gZmlsbD0iI0ZGRkZGRiIgcG9pbnRzPSIyMiwyNSAxNS40LDE4LjQgMTUuNCwyMyA2LjQsMjMgNi40LDI3IDE1LjQsMjcgMTUuNCwzMS42ICIvPiYjeGE7PC9zdmc+" parent="1" vertex="1">
          <mxGeometry x="675" y="320" width="25" height="25" as="geometry" />
        </mxCell>
        <mxCell id="l_mYRzrYeqDjEib-8nwH-25" value="" style="shape=image;verticalLabelPosition=bottom;verticalAlign=top;imageAspect=0;aspect=fixed;image=data:image/svg+xml,PHN2ZyB4bWxucz0iaHR0cDovL3d3dy53My5vcmcvMjAwMC9zdmciIHhtbG5zOnhsaW5rPSJodHRwOi8vd3d3LnczLm9yZy8xOTk5L3hsaW5rIiB2ZXJzaW9uPSIxLjEiIGlkPSJMYXllcl8xIiB4PSIwcHgiIHk9IjBweCIgd2lkdGg9IjUwcHgiIGhlaWdodD0iNTBweCIgdmlld0JveD0iMCAwIDUwIDUwIiBlbmFibGUtYmFja2dyb3VuZD0ibmV3IDAgMCA1MCA1MCIgeG1sOnNwYWNlPSJwcmVzZXJ2ZSI+JiN4YTs8cGF0aCBmaWxsPSIjN0ZCQTAwIiBkPSJNMjUsNTBjLTEuMiwwLTIuNC0wLjUtMy4zLTEuNEwxLjQsMjguM0MwLjUsMjcuNCwwLDI2LjIsMCwyNXMwLjUtMi40LDEuNC0zLjNMMjEuNywxLjQgIEMyMi42LDAuNSwyMy44LDAsMjUsMHMyLjQsMC41LDMuMywxLjRsMjAuNCwyMC40YzAuOSwwLjksMS40LDIsMS40LDMuM2MwLDEuMi0wLjUsMi40LTEuNCwzLjNMMjguMyw0OC42QzI3LjQsNDkuNSwyNi4yLDUwLDI1LDUwIi8+JiN4YTs8cGF0aCBvcGFjaXR5PSIwLjE1IiBmaWxsPSIjRkZGRkZGIiBlbmFibGUtYmFja2dyb3VuZD0ibmV3ICAgICIgZD0iTTI4LjMsMS40QzI3LjQsMC41LDI2LjIsMCwyNSwwcy0yLjQsMC41LTMuMywxLjRMMS40LDIxLjcgIEMwLjUsMjIuNiwwLDIzLjgsMCwyNXMwLjUsMi40LDEuNCwzLjNsMTEuNSwxMS41TDM0LjYsNy43TDI4LjMsMS40eiIvPiYjeGE7PHBvbHlnb24gZmlsbD0iI0ZGRkZGRiIgcG9pbnRzPSIyNSw0LjQgMTguNCwxMSAyMy4xLDExIDIzLjEsMjAuNiAyNywyMC42IDI3LDExIDMxLjYsMTEgIi8+JiN4YTs8cG9seWdvbiBmaWxsPSIjRkZGRkZGIiBwb2ludHM9IjI1LDQ1LjYgMzEuNiwzOSAyNi45LDM5IDI2LjksMjkuNiAyMywyOS42IDIzLDM5IDE4LjQsMzkgIi8+JiN4YTs8cG9seWdvbiBmaWxsPSIjRkZGRkZGIiBwb2ludHM9IjI4LjEsMjUgMzQuNywzMS42IDM0LjcsMjcgNDMuNiwyNyA0My42LDIzIDM0LjcsMjMgMzQuNywxOC40ICIvPiYjeGE7PHBvbHlnb24gZmlsbD0iI0ZGRkZGRiIgcG9pbnRzPSIyMiwyNSAxNS40LDE4LjQgMTUuNCwyMyA2LjQsMjMgNi40LDI3IDE1LjQsMjcgMTUuNCwzMS42ICIvPiYjeGE7PC9zdmc+" parent="1" vertex="1">
          <mxGeometry x="675" y="268" width="25" height="25" as="geometry" />
        </mxCell>
        <mxCell id="l_mYRzrYeqDjEib-8nwH-26" value="" style="shape=image;verticalLabelPosition=bottom;verticalAlign=top;imageAspect=0;aspect=fixed;image=data:image/svg+xml,PHN2ZyB4bWxucz0iaHR0cDovL3d3dy53My5vcmcvMjAwMC9zdmciIHhtbG5zOnhsaW5rPSJodHRwOi8vd3d3LnczLm9yZy8xOTk5L3hsaW5rIiB2ZXJzaW9uPSIxLjEiIGlkPSJMYXllcl8xIiB4PSIwcHgiIHk9IjBweCIgd2lkdGg9IjUwcHgiIGhlaWdodD0iNTBweCIgdmlld0JveD0iMCAwIDUwIDUwIiBlbmFibGUtYmFja2dyb3VuZD0ibmV3IDAgMCA1MCA1MCIgeG1sOnNwYWNlPSJwcmVzZXJ2ZSI+JiN4YTs8cGF0aCBmaWxsPSIjN0ZCQTAwIiBkPSJNMjUsNTBjLTEuMiwwLTIuNC0wLjUtMy4zLTEuNEwxLjQsMjguM0MwLjUsMjcuNCwwLDI2LjIsMCwyNXMwLjUtMi40LDEuNC0zLjNMMjEuNywxLjQgIEMyMi42LDAuNSwyMy44LDAsMjUsMHMyLjQsMC41LDMuMywxLjRsMjAuNCwyMC40YzAuOSwwLjksMS40LDIsMS40LDMuM2MwLDEuMi0wLjUsMi40LTEuNCwzLjNMMjguMyw0OC42QzI3LjQsNDkuNSwyNi4yLDUwLDI1LDUwIi8+JiN4YTs8cGF0aCBvcGFjaXR5PSIwLjE1IiBmaWxsPSIjRkZGRkZGIiBlbmFibGUtYmFja2dyb3VuZD0ibmV3ICAgICIgZD0iTTI4LjMsMS40QzI3LjQsMC41LDI2LjIsMCwyNSwwcy0yLjQsMC41LTMuMywxLjRMMS40LDIxLjcgIEMwLjUsMjIuNiwwLDIzLjgsMCwyNXMwLjUsMi40LDEuNCwzLjNsMTEuNSwxMS41TDM0LjYsNy43TDI4LjMsMS40eiIvPiYjeGE7PHBvbHlnb24gZmlsbD0iI0ZGRkZGRiIgcG9pbnRzPSIyNSw0LjQgMTguNCwxMSAyMy4xLDExIDIzLjEsMjAuNiAyNywyMC42IDI3LDExIDMxLjYsMTEgIi8+JiN4YTs8cG9seWdvbiBmaWxsPSIjRkZGRkZGIiBwb2ludHM9IjI1LDQ1LjYgMzEuNiwzOSAyNi45LDM5IDI2LjksMjkuNiAyMywyOS42IDIzLDM5IDE4LjQsMzkgIi8+JiN4YTs8cG9seWdvbiBmaWxsPSIjRkZGRkZGIiBwb2ludHM9IjI4LjEsMjUgMzQuNywzMS42IDM0LjcsMjcgNDMuNiwyNyA0My42LDIzIDM0LjcsMjMgMzQuNywxOC40ICIvPiYjeGE7PHBvbHlnb24gZmlsbD0iI0ZGRkZGRiIgcG9pbnRzPSIyMiwyNSAxNS40LDE4LjQgMTUuNCwyMyA2LjQsMjMgNi40LDI3IDE1LjQsMjcgMTUuNCwzMS42ICIvPiYjeGE7PC9zdmc+" parent="1" vertex="1">
          <mxGeometry x="675" y="190" width="25" height="25" as="geometry" />
        </mxCell>
      </root>
    </mxGraphModel>
  </diagram>
</mxfile>
